<?xml version="1.0" encoding="utf-8"?>
<svg version="1.1" xmlns:xlink="http://www.w3.org/1999/xlink" width="154px" height="104px" xmlns="http://www.w3.org/2000/svg">
  <defs>
    <filter x="381px" y="114px" width="154px" height="104px" filterUnits="userSpaceOnUse" id="filter9">
      <feOffset dx="0" dy="0" in="SourceAlpha" result="shadowOffsetInner" />
      <feGaussianBlur stdDeviation="2.5" in="shadowOffsetInner" result="shadowGaussian" />
      <feComposite in2="shadowGaussian" operator="atop" in="SourceAlpha" result="shadowComposite" />
      <feColorMatrix type="matrix" values="0 0 0 0 0  0 0 0 0 0  0 0 0 0 0  0 0 0 0.349019607843137 0  " in="shadowComposite" />
    </filter>
    <g id="widget10">
      <path d="M 386.5 129  A 9.5 9.5 0 0 1 396 119.5 L 520 119.5  A 9.5 9.5 0 0 1 529.5 129 L 529.5 203  A 9.5 9.5 0 0 1 520 212.5 L 396 212.5  A 9.5 9.5 0 0 1 386.5 203 L 386.5 129  Z " fill-rule="nonzero" fill="#ffffff" stroke="none" fill-opacity="0" />
      <path d="M 386.5 129  A 9.5 9.5 0 0 1 396 119.5 L 520 119.5  A 9.5 9.5 0 0 1 529.5 129 L 529.5 203  A 9.5 9.5 0 0 1 520 212.5 L 396 212.5  A 9.5 9.5 0 0 1 386.5 203 L 386.5 129  Z " stroke-width="1" stroke="#f2f2f2" fill="none" />
    </g>
  </defs>
  <g transform="matrix(1 0 0 1 -381 -114 )">
    <use xlink:href="#widget10" filter="url(#filter9)" />
    <use xlink:href="#widget10" />
  </g>
</svg>