<?xml version="1.0" encoding="utf-8"?>
<svg version="1.1" xmlns:xlink="http://www.w3.org/1999/xlink" width="162px" height="104px" xmlns="http://www.w3.org/2000/svg">
  <defs>
    <filter x="548px" y="114px" width="162px" height="104px" filterUnits="userSpaceOnUse" id="filter13">
      <feOffset dx="0" dy="0" in="SourceAlpha" result="shadowOffsetInner" />
      <feGaussianBlur stdDeviation="2.5" in="shadowOffsetInner" result="shadowGaussian" />
      <feComposite in2="shadowGaussian" operator="atop" in="SourceAlpha" result="shadowComposite" />
      <feColorMatrix type="matrix" values="0 0 0 0 0  0 0 0 0 0  0 0 0 0 0  0 0 0 0.349019607843137 0  " in="shadowComposite" />
    </filter>
    <g id="widget14">
      <path d="M 553.5 129  A 9.5 9.5 0 0 1 563 119.5 L 695 119.5  A 9.5 9.5 0 0 1 704.5 129 L 704.5 203  A 9.5 9.5 0 0 1 695 212.5 L 563 212.5  A 9.5 9.5 0 0 1 553.5 203 L 553.5 129  Z " fill-rule="nonzero" fill="#ffffff" stroke="none" fill-opacity="0" />
      <path d="M 553.5 129  A 9.5 9.5 0 0 1 563 119.5 L 695 119.5  A 9.5 9.5 0 0 1 704.5 129 L 704.5 203  A 9.5 9.5 0 0 1 695 212.5 L 563 212.5  A 9.5 9.5 0 0 1 553.5 203 L 553.5 129  Z " stroke-width="1" stroke="#f2f2f2" fill="none" />
    </g>
  </defs>
  <g transform="matrix(1 0 0 1 -548 -114 )">
    <use xlink:href="#widget14" filter="url(#filter13)" />
    <use xlink:href="#widget14" />
  </g>
</svg>