<?xml version="1.0" encoding="utf-8"?>
<svg version="1.1" xmlns:xlink="http://www.w3.org/1999/xlink" width="315px" height="104px" xmlns="http://www.w3.org/2000/svg">
  <defs>
    <filter x="168px" y="99px" width="315px" height="104px" filterUnits="userSpaceOnUse" id="filter97">
      <feOffset dx="0" dy="0" in="SourceAlpha" result="shadowOffsetInner" />
      <feGaussianBlur stdDeviation="2.5" in="shadowOffsetInner" result="shadowGaussian" />
      <feComposite in2="shadowGaussian" operator="atop" in="SourceAlpha" result="shadowComposite" />
      <feColorMatrix type="matrix" values="0 0 0 0 0  0 0 0 0 0  0 0 0 0 0  0 0 0 0.349019607843137 0  " in="shadowComposite" />
    </filter>
    <g id="widget98">
      <path d="M 173.5 108  A 3.5 3.5 0 0 1 177 104.5 L 474 104.5  A 3.5 3.5 0 0 1 477.5 108 L 477.5 194  A 3.5 3.5 0 0 1 474 197.5 L 177 197.5  A 3.5 3.5 0 0 1 173.5 194 L 173.5 108  Z " fill-rule="nonzero" fill="#ffffff" stroke="none" fill-opacity="0" />
      <path d="M 173.5 108  A 3.5 3.5 0 0 1 177 104.5 L 474 104.5  A 3.5 3.5 0 0 1 477.5 108 L 477.5 194  A 3.5 3.5 0 0 1 474 197.5 L 177 197.5  A 3.5 3.5 0 0 1 173.5 194 L 173.5 108  Z " stroke-width="1" stroke="#f2f2f2" fill="none" />
    </g>
  </defs>
  <g transform="matrix(1 0 0 1 -168 -99 )">
    <use xlink:href="#widget98" filter="url(#filter97)" />
    <use xlink:href="#widget98" />
  </g>
</svg>