<?xml version="1.0" encoding="utf-8"?>
<svg version="1.1" xmlns:xlink="http://www.w3.org/1999/xlink" width="35px" height="35px" xmlns="http://www.w3.org/2000/svg">
  <g transform="matrix(1 0 0 1 -105 -299 )">
    <path d="M 122.5 299  C 132.3 299  140 306.7  140 316.5  C 140 326.3  132.3 334  122.5 334  C 112.7 334  105 326.3  105 316.5  C 105 306.7  112.7 299  122.5 299  Z " fill-rule="nonzero" fill="#ffffff" stroke="none" />
    <path d="M 122.5 299.5  C 132.02 299.5  139.5 306.98  139.5 316.5  C 139.5 326.02  132.02 333.5  122.5 333.5  C 112.98 333.5  105.5 326.02  105.5 316.5  C 105.5 306.98  112.98 299.5  122.5 299.5  Z " stroke-width="1" stroke="#797979" fill="none" />
  </g>
</svg>